<svg xmlns="http://www.w3.org/2000/svg" width="390" height="844" viewBox="0 0 390 844">
  <rect width="390" height="844" rx="36" fill="#090A0D"/>
  <text x="28" y="64" fill="#F8FAFC" font-family="Arial" font-size="30" font-weight="700">Telesis</text>
  <text x="28" y="94" fill="#94A3B8" font-family="Arial" font-size="14">Monthly overview</text>
  <rect x="24" y="126" width="342" height="142" rx="26" fill="#111827"/>
  <text x="48" y="174" fill="#94A3B8" font-family="Arial" font-size="14">Spent this month</text>
  <text x="48" y="222" fill="#F8FAFC" font-family="Arial" font-size="40" font-weight="700">₹24,580</text>
  <rect x="24" y="292" width="160" height="108" rx="24" fill="#0F172A"/>
  <rect x="206" y="292" width="160" height="108" rx="24" fill="#0F172A"/>
  <text x="48" y="342" fill="#34D399" font-family="Arial" font-size="24" font-weight="700">₹1,240</text>
  <text x="230" y="342" fill="#FBBF24" font-family="Arial" font-size="24" font-weight="700">Food</text>
  <text x="48" y="372" fill="#94A3B8" font-family="Arial" font-size="13">Today</text>
  <text x="230" y="372" fill="#94A3B8" font-family="Arial" font-size="13">Top category</text>
  <text x="28" y="452" fill="#F8FAFC" font-family="Arial" font-size="20" font-weight="700">Recent expenses</text>
  <g fill="#111827">
    <rect x="24" y="480" width="342" height="68" rx="20"/>
    <rect x="24" y="564" width="342" height="68" rx="20"/>
    <rect x="24" y="648" width="342" height="68" rx="20"/>
  </g>
  <g font-family="Arial" font-size="15" fill="#E5E7EB">
    <text x="48" y="521">Zomato</text><text x="300" y="521">₹420</text>
    <text x="48" y="605">Metro Fuel</text><text x="300" y="605">₹2,000</text>
    <text x="48" y="689">Amazon</text><text x="300" y="689">₹1,299</text>
  </g>
</svg>
