<svg xmlns="http://www.w3.org/2000/svg" width="390" height="844" viewBox="0 0 390 844">
  <rect width="390" height="844" rx="36" fill="#090A0D"/>
  <text x="28" y="64" fill="#F8FAFC" font-family="Arial" font-size="28" font-weight="700">SMS Review</text>
  <text x="28" y="96" fill="#94A3B8" font-family="Arial" font-size="14">Approve uncertain imports</text>
  <rect x="24" y="132" width="342" height="126" rx="26" fill="#111827"/>
  <text x="48" y="174" fill="#F8FAFC" font-family="Arial" font-size="18" font-weight="700">HDFC Bank</text>
  <text x="48" y="206" fill="#94A3B8" font-family="Arial" font-size="13">UPI debit · Possible merchant</text>
  <text x="282" y="178" fill="#F87171" font-family="Arial" font-size="20" font-weight="700">₹860</text>
  <rect x="48" y="224" width="88" height="28" rx="14" fill="#16A34A"/>
  <rect x="148" y="224" width="78" height="28" rx="14" fill="#374151"/>
  <text x="66" y="243" fill="#FFFFFF" font-family="Arial" font-size="12">Approve</text>
  <text x="171" y="243" fill="#D1D5DB" font-family="Arial" font-size="12">Ignore</text>
  <rect x="24" y="284" width="342" height="126" rx="26" fill="#111827"/>
  <text x="48" y="326" fill="#F8FAFC" font-family="Arial" font-size="18" font-weight="700">ICICI Card</text>
  <text x="48" y="358" fill="#94A3B8" font-family="Arial" font-size="13">Card debit · Shopping</text>
  <text x="276" y="330" fill="#F87171" font-family="Arial" font-size="20" font-weight="700">₹1,999</text>
  <rect x="48" y="376" width="88" height="28" rx="14" fill="#16A34A"/>
  <rect x="148" y="376" width="78" height="28" rx="14" fill="#374151"/>
  <text x="66" y="395" fill="#FFFFFF" font-family="Arial" font-size="12">Approve</text>
  <text x="171" y="395" fill="#D1D5DB" font-family="Arial" font-size="12">Ignore</text>
  <text x="28" y="480" fill="#F8FAFC" font-family="Arial" font-size="20" font-weight="700">Local only</text>
  <text x="28" y="512" fill="#94A3B8" font-family="Arial" font-size="14">No cloud. No login. No internet permission.</text>
</svg>
